<svg version="1.1" xmlns="http://www.w3.org/2000/svg" xmlns:xlink="http://www.w3.org/1999/xlink" width="567.000000pt" height="647.000000pt" viewBox="0,0,224.34375,256"><g fill="#de272c" fill-rule="nonzero" stroke="none" stroke-width="1" stroke-linecap="butt" stroke-linejoin="miter" stroke-miterlimit="10" stroke-dasharray="" stroke-dashoffset="0" font-family="none" font-weight="none" font-size="none" text-anchor="none" style="mix-blend-mode: normal"><g transform="translate(-0.06801,3.76732) scale(0.39567,0.39567)"><g transform="translate(0,647) scale(0.1,-0.1)"><path d="M1952,5910c-29,-12 -287,-264 -445,-435c-144,-155 -183,-214 -227,-334c-31,-87 -34,-91 -69,-101c-96,-26 -154,-106 -154,-212v-59l-90,-82c-98,-89 -148,-156 -306,-407c-195,-310 -281,-455 -286,-485c-6,-34 9,-59 42,-69c29,-9 101,54 376,329c240,241 290,305 356,462l42,100l56,7c39,4 60,3 71,-6c14,-12 455,-506 761,-853c68,-77 127,-150 132,-163c13,-33 11,-519 -2,-565c-7,-27 -47,-80 -132,-175c-67,-74 -183,-204 -257,-287c-74,-83 -218,-242 -319,-354l-185,-202l-55,7c-31,3 -61,11 -68,16c-6,5 -28,52 -48,104c-20,52 -55,122 -78,157c-44,67 -421,451 -551,560c-89,76 -128,86 -148,42c-16,-35 0,-71 118,-258c299,-477 371,-575 526,-715l47,-42l-6,-55c-5,-46 -2,-63 22,-110c29,-61 54,-81 124,-105c41,-13 48,-20 65,-65c10,-27 27,-72 37,-98c39,-102 111,-189 364,-443c137,-137 262,-256 277,-263c37,-19 76,-7 89,27c14,36 2,59 -168,335c-199,323 -286,450 -374,544c-74,78 -79,86 -78,126c0,23 3,49 7,57c4,9 77,79 162,155c85,77 262,239 393,360c295,273 344,315 365,315c36,0 65,-28 290,-282c56,-64 117,-123 136,-132c47,-22 124,-21 160,3c16,11 99,99 185,197c86,98 168,186 183,197c50,37 1,75 619,-487c371,-337 349,-313 349,-379c0,-53 -1,-55 -81,-143c-45,-49 -118,-145 -164,-214c-120,-184 -353,-563 -370,-602c-19,-47 -2,-82 42,-86c42,-4 96,42 359,309c235,238 288,309 343,455l36,96l55,20c30,11 65,30 77,41c40,36 63,98 63,167v63l105,99c111,105 188,214 433,604c149,240 172,290 140,322c-27,27 -57,11 -179,-100c-415,-377 -529,-511 -599,-703c-12,-33 -27,-65 -34,-71c-6,-7 -35,-15 -65,-18l-54,-7l-55,58c-30,32 -132,144 -227,248c-95,105 -226,249 -291,321c-260,285 -309,344 -321,387c-14,53 -17,508 -3,557c6,19 38,67 71,105c344,393 791,896 816,917c16,15 29,16 78,10l58,-7l37,-92c70,-171 108,-218 432,-540c244,-241 280,-269 317,-246c9,6 17,25 19,42c4,36 -37,114 -191,361c-212,340 -277,431 -383,535l-102,100l-4,72c-5,95 -39,148 -113,176c-28,11 -57,23 -65,27c-8,4 -27,40 -41,81c-53,154 -97,214 -331,449c-304,307 -378,366 -416,328c-36,-36 5,-127 188,-423c200,-322 291,-448 385,-532c50,-45 49,-38 29,-145c-5,-27 -134,-148 -684,-643c-181,-163 -197,-172 -423,-215c-86,-16 -148,-20 -305,-20c-108,0 -228,5 -266,10c-93,14 -229,48 -279,70c-26,12 -167,134 -373,322c-553,506 -502,454 -508,518l-5,55l85,95c113,126 359,500 484,734c56,104 65,150 34,173c-20,15 -30,15 -62,3zM1276,4897c34,-30 35,-79 3,-113c-29,-31 -63,-30 -94,1c-37,37 -28,101 19,123c32,16 42,14 72,-11zM4504,4875c22,-58 -20,-133 -67,-120c-38,12 -59,40 -59,79c0,40 15,64 47,76c24,9 70,-12 79,-35zM2362,3782c95,-60 239,-152 319,-205c80,-53 152,-97 159,-97c7,0 123,71 259,158c313,202 370,236 377,229c6,-6 -147,-195 -376,-462c-198,-231 -254,-290 -268,-281c-15,9 -345,390 -496,571c-60,72 -122,145 -138,163c-16,17 -25,32 -20,32c6,0 88,-49 184,-108zM2496,3238c156,-188 337,-388 349,-388c7,0 22,11 32,24c10,13 70,84 134,157c63,74 142,169 176,211c34,42 64,74 67,71c3,-4 6,-83 6,-177c0,-146 -3,-175 -18,-197c-9,-14 -95,-117 -191,-228c-112,-129 -183,-204 -199,-208c-21,-5 -33,3 -76,48c-112,120 -339,385 -347,407c-8,21 -13,362 -6,362c2,0 35,-37 73,-82zM1275,1885c32,-31 33,-80 3,-112c-39,-42 -96,-24 -111,36c-8,33 8,68 40,85c37,20 40,20 68,-9zM4487,1878c27,-25 30,-73 7,-106c-22,-32 -76,-30 -103,4c-28,35 -26,69 4,99c30,31 62,32 92,3z"></path></g></g></g></svg>