<svg version="1.1" xmlns="http://www.w3.org/2000/svg" xmlns:xlink="http://www.w3.org/1999/xlink" width="800px" height="800px" viewBox="0,0,256,256"><g fill="#b2b2b2" fill-rule="evenodd" stroke="none" stroke-width="1" stroke-linecap="butt" stroke-linejoin="miter" stroke-miterlimit="10" stroke-dasharray="" stroke-dashoffset="0" font-family="none" font-weight="none" font-size="none" text-anchor="none" style="mix-blend-mode: normal"><g transform="translate(-2.8288,-2.82827) scale(10.66667,10.66667)"><path d="M15,10.5c0,2.4853 -2.0147,4.5 -4.5,4.5c-2.48528,0 -4.5,-2.0147 -4.5,-4.5c0,-2.48528 2.01472,-4.5 4.5,-4.5c2.4853,0 4.5,2.01472 4.5,4.5zM14.1793,15.2399c-1.0161,0.7898 -2.2928,1.2601 -3.6793,1.2601c-3.31371,0 -6,-2.6863 -6,-6c0,-3.31371 2.68629,-6 6,-6c3.3137,0 6,2.68629 6,6c0,1.3865 -0.4703,2.6632 -1.2601,3.6792l4.7905,4.7905l-1.0607,1.0606z"></path></g></g></svg>