<svg version="1.1" xmlns="http://www.w3.org/2000/svg" xmlns:xlink="http://www.w3.org/1999/xlink" width="800px" height="800px" viewBox="0,0,256,256"><g fill="none" fill-rule="nonzero" stroke="#b2b2b2" stroke-width="1.5" stroke-linecap="none" stroke-linejoin="miter" stroke-miterlimit="10" stroke-dasharray="" stroke-dashoffset="0" font-family="none" font-weight="none" font-size="none" text-anchor="none" style="mix-blend-mode: normal"><g transform="translate(0.00062,0) scale(10.66667,10.66667)"><circle cx="12" cy="12" r="3" stroke-linecap="butt"></circle><path d="M3.66122,10.6392c0.47255,0.2969 0.7766,0.8027 0.7766,1.3607c-0.00001,0.5581 -0.30406,1.0639 -0.7766,1.3608c-0.32156,0.202 -0.52874,0.3635 -0.67614,0.5556c-0.32291,0.4209 -0.46542,0.9527 -0.39618,1.4786c0.05192,0.3944 0.28489,0.7979 0.75083,1.605c0.46595,0.807 0.69892,1.2105 1.01453,1.4527c0.42082,0.3229 0.95268,0.4654 1.47858,0.3962c0.24003,-0.0316 0.48344,-0.1303 0.81912,-0.3077c0.49348,-0.2608 1.08362,-0.2712 1.56699,0.0079c0.48332,0.2791 0.76932,0.7953 0.79017,1.353c0.0142,0.3795 0.05046,0.6397 0.14312,0.8634c0.20299,0.49 0.59234,0.8794 1.08236,1.0824c0.3676,0.1522 0.8335,0.1522 1.7654,0.1522c0.9319,0 1.3978,0 1.7654,-0.1522c0.49,-0.203 0.8794,-0.5924 1.0824,-1.0824c0.0926,-0.2237 0.1289,-0.4839 0.1431,-0.8633c0.0208,-0.5578 0.3068,-1.074 0.7902,-1.3531c0.4833,-0.279 1.0734,-0.2686 1.5668,-0.0078c0.3358,0.1774 0.5792,0.2761 0.8192,0.3077c0.5259,0.0693 1.0578,-0.0733 1.4786,-0.3962c0.3156,-0.2421 0.5486,-0.6457 1.0146,-1.4527c0.2074,-0.3593 0.3687,-0.6386 0.4883,-0.8728M20.3387,13.3608c-0.4725,-0.2969 -0.7765,-0.8027 -0.7766,-1.3607c0,-0.5581 0.3041,-1.064 0.7766,-1.3609c0.3216,-0.202 0.5287,-0.3635 0.6761,-0.5556c0.3229,-0.42082 0.4654,-0.95268 0.3962,-1.47858c-0.0519,-0.39442 -0.2849,-0.79794 -0.7509,-1.60497c-0.4659,-0.80704 -0.6989,-1.21055 -1.0145,-1.45273c-0.4208,-0.32291 -0.9527,-0.46542 -1.4786,-0.39619c-0.24,0.03161 -0.4834,0.13027 -0.8191,0.3077c-0.4935,0.26081 -1.0836,0.27121 -1.5669,-0.00787c-0.4833,-0.27906 -0.7693,-0.79526 -0.7901,-1.35293c-0.0142,-0.37951 -0.0505,-0.63968 -0.1431,-0.8634c-0.203,-0.49005 -0.5924,-0.8794 -1.0824,-1.08239c-0.3676,-0.15224 -0.8335,-0.15224 -1.7654,-0.15224c-0.9319,0 -1.3978,0 -1.7654,0.15224c-0.49002,0.20299 -0.87937,0.59234 -1.08236,1.08239c-0.09266,0.2237 -0.12892,0.48385 -0.14312,0.86331c-0.02086,0.55772 -0.30687,1.07397 -0.79021,1.35302c-0.48334,0.27906 -1.07343,0.26863 -1.56686,0.00784c-0.33572,-0.17744 -0.57915,-0.27611 -0.8192,-0.30772c-0.5259,-0.06923 -1.05776,0.07328 -1.47858,0.39619c-0.31561,0.24218 -0.54858,0.6457 -1.01453,1.45273c-0.20743,0.35929 -0.36869,0.63859 -0.48836,0.87273" stroke-linecap="round"></path></g></g></svg>