<svg version="1.1" xmlns="http://www.w3.org/2000/svg" xmlns:xlink="http://www.w3.org/1999/xlink" width="800px" height="800px" viewBox="0,0,256,256"><g fill="none" fill-rule="nonzero" stroke="#b2b2b2" stroke-width="none" stroke-linecap="round" stroke-linejoin="round" stroke-miterlimit="10" stroke-dasharray="" stroke-dashoffset="0" font-family="none" font-weight="none" font-size="none" text-anchor="none" style="mix-blend-mode: normal"><g transform="scale(1.33333,1.33333)"><path d="M56,68c2.20914,0 4,-1.79086 4,-4c0,-2.20914 -1.79086,-4 -4,-4c-2.20914,0 -4,1.79086 -4,4c0,2.20914 1.79086,4 4,4zM90,68c2.20914,0 4,-1.79086 4,-4c0,-2.20914 -1.79086,-4 -4,-4c-2.20914,0 -4,1.79086 -4,4c0,2.20914 1.79086,4 4,4z" stroke-width="8"></path><path d="M170,115.24c0,-19.305 -20.141,-35.392 -45.044,-35.392c-24.902,0 -45.043,16.087 -45.043,35.392c0,19.304 20.141,35.392 45.043,35.392c5.11112,0.00754 10.19914,-0.68558 15.122,-2.06l17.053,8.494l-5.342,-13.449c10.72231,-5.50617 17.67212,-16.33559 18.211,-28.377z" stroke-width="12"></path><path d="M109,107c2.20914,0 4,-1.79086 4,-4c0,-2.20914 -1.79086,-4 -4,-4c-2.20914,0 -4,1.79086 -4,4c0,2.20914 1.79086,4 4,4zM141,107c2.20914,0 4,-1.79086 4,-4c0,-2.20914 -1.79086,-4 -4,-4c-2.20914,0 -4,1.79086 -4,4c0,2.20914 1.79086,4 4,4z" stroke-width="8"></path><path d="M128.174,79.978c0,-24.903 -23.744,-45.044 -53.087,-45.044c-29.343,0 -53.087,20.012 -53.087,44.915c0.48518,14.55645 8.30784,27.87726 20.784,35.392l-7.915,16.087l18.339,-10.489c6.98151,2.68464 14.39811,4.05928 21.878,4.055c2.15022,-0.01842 4.29807,-0.14759 6.435,-0.387" stroke-width="12"></path></g></g></svg>