<svg version="1.1" xmlns="http://www.w3.org/2000/svg" xmlns:xlink="http://www.w3.org/1999/xlink" width="512.000000pt" height="512.000000pt" viewBox="0,0,256,256"><g fill="#b2b2b2" fill-rule="nonzero" stroke="none" stroke-width="1" stroke-linecap="butt" stroke-linejoin="miter" stroke-miterlimit="10" stroke-dasharray="" stroke-dashoffset="0" font-family="none" font-weight="none" font-size="none" text-anchor="none" style="mix-blend-mode: normal"><g transform="translate(-0.19276,0.12502) scale(0.5,0.5)"><g transform="translate(0,512) scale(0.1,-0.1)"><path d="M2290,4945c-1101,-136 -1967,-1020 -2081,-2124c-17,-163 -7,-473 21,-630c43,-247 115,-465 227,-688l56,-112l-167,-611c-92,-337 -166,-613 -164,-614c2,-2 282,71 623,161c496,131 625,162 645,154c14,-5 79,-34 145,-64c214,-97 439,-161 676,-193c165,-22 454,-22 614,0c526,74 995,306 1365,676c194,193 323,370 445,611c110,217 188,454 232,704c25,146 25,577 0,730c-43,259 -110,466 -223,695c-323,651 -919,1115 -1632,1270c-222,48 -553,63 -782,35zM2915,4531c287,-53 525,-149 760,-306c402,-269 697,-686 814,-1148c86,-340 79,-726 -18,-1053c-158,-528 -533,-973 -1025,-1213c-286,-140 -550,-201 -871,-201c-368,0 -693,89 -1026,281l-56,32l-368,-97c-202,-53 -370,-95 -371,-93c-2,2 39,160 92,352c52,192 96,356 96,364c1,9 -25,59 -57,111c-472,768 -348,1780 295,2420c320,318 726,514 1180,570c123,15 429,4 555,-19z"></path><path d="M1641,3658c-57,-28 -163,-153 -207,-245c-87,-180 -85,-408 5,-618c110,-259 399,-627 684,-871c200,-171 367,-272 612,-368c251,-98 299,-109 465,-109c131,0 152,2 212,25c100,38 175,85 249,158c58,57 70,75 89,135c23,76 37,197 26,239c-5,22 -34,40 -176,111c-260,130 -365,175 -409,175c-37,0 -43,-4 -87,-62c-101,-133 -194,-236 -218,-242c-29,-7 -86,14 -217,80c-213,106 -386,249 -535,440c-81,104 -154,222 -154,250c0,11 38,70 84,130c90,117 116,161 116,194c0,11 -20,66 -43,123c-24,56 -72,172 -107,257c-44,106 -74,165 -96,188l-32,32h-108c-91,0 -116,-4 -153,-22z"></path></g></g></g></svg>