<svg version="1.1" xmlns="http://www.w3.org/2000/svg" xmlns:xlink="http://www.w3.org/1999/xlink" width="512.000000pt" height="512.000000pt" viewBox="0,0,256,256"><g fill="#b2b2b2" fill-rule="nonzero" stroke="none" stroke-width="1" stroke-linecap="butt" stroke-linejoin="miter" stroke-miterlimit="10" stroke-dasharray="" stroke-dashoffset="0" font-family="none" font-weight="none" font-size="none" text-anchor="none" style="mix-blend-mode: normal"><g transform="translate(0.25026,0) scale(0.5,0.5)"><g transform="translate(0,512) scale(0.1,-0.1)"><path d="M75,5093c10,-16 448,-653 973,-1418c525,-765 955,-1395 955,-1400c0,-6 -431,-512 -959,-1126c-527,-613 -965,-1123 -973,-1132c-13,-16 1,-17 206,-17h220l849,987c467,542 854,988 859,989c6,2 316,-442 689,-986l679,-990h744c705,0 743,1 734,18c-5,9 -460,672 -1010,1472c-550,800 -1001,1457 -1001,1460c0,4 418,492 929,1085l928,1080l-215,3c-177,2 -218,0 -231,-12c-9,-8 -374,-431 -811,-939c-437,-509 -798,-923 -802,-921c-4,3 -296,425 -649,939l-642,935h-745h-744zM2890,2564c855,-1224 1557,-2229 1558,-2235c3,-6 -118,-8 -334,-7l-338,3l-1558,2228c-857,1226 -1558,2231 -1558,2233c0,2 152,4 338,4l337,-1z"></path></g></g></g></svg>